<svg xmlns="http://www.w3.org/2000/svg" viewBox="0 0 800 420" fill="none">
  <rect width="800" height="420" rx="12" fill="#0b1020"/>
  <!-- Sidebar -->
  <rect x="0" y="0" width="180" height="420" rx="12" fill="#0e1529"/>
  <rect x="16" y="20" width="148" height="32" rx="8" fill="#1c2745"/>
  <text x="52" y="42" font-family="system-ui" font-size="14" font-weight="700" fill="#a78bfa">Floo</text>
  <rect x="16" y="72" width="148" height="36" rx="8" fill="#2d1b69"/>
  <text x="40" y="96" font-family="system-ui" font-size="12" fill="#a78bfa">Dashboard</text>
  <rect x="16" y="116" width="148" height="36" rx="8" fill="transparent"/>
  <text x="40" y="140" font-family="system-ui" font-size="12" fill="#a8b1c7">Transacciones</text>
  <rect x="16" y="160" width="148" height="36" rx="8" fill="transparent"/>
  <text x="40" y="184" font-family="system-ui" font-size="12" fill="#a8b1c7">Cuentas</text>
  <rect x="16" y="204" width="148" height="36" rx="8" fill="transparent"/>
  <text x="40" y="228" font-family="system-ui" font-size="12" fill="#a8b1c7">Insights</text>
  <rect x="16" y="248" width="148" height="36" rx="8" fill="transparent"/>
  <text x="40" y="272" font-family="system-ui" font-size="12" fill="#a8b1c7">Importar CSV</text>

  <!-- KPI Cards -->
  <rect x="200" y="20" width="185" height="80" rx="10" fill="#11172b" stroke="#1c2745" stroke-width="1"/>
  <text x="216" y="44" font-family="system-ui" font-size="11" fill="#a8b1c7">Balance total</text>
  <text x="216" y="78" font-family="system-ui" font-size="26" font-weight="700" fill="#a78bfa">$4,285.30</text>

  <rect x="401" y="20" width="185" height="80" rx="10" fill="#11172b" stroke="#1c2745" stroke-width="1"/>
  <text x="417" y="44" font-family="system-ui" font-size="11" fill="#a8b1c7">Ingresos (mar)</text>
  <text x="417" y="78" font-family="system-ui" font-size="26" font-weight="700" fill="#8affc1">+$2,150</text>

  <rect x="602" y="20" width="178" height="80" rx="10" fill="#11172b" stroke="#1c2745" stroke-width="1"/>
  <text x="618" y="44" font-family="system-ui" font-size="11" fill="#a8b1c7">Gastos (mar)</text>
  <text x="618" y="78" font-family="system-ui" font-size="26" font-weight="700" fill="#ff6b6b">-$1,340</text>

  <!-- Line chart -->
  <rect x="200" y="116" width="380" height="190" rx="10" fill="#11172b" stroke="#1c2745" stroke-width="1"/>
  <text x="216" y="142" font-family="system-ui" font-size="12" font-weight="600" fill="#e8edf7">Balance ultimos 6 meses</text>
  <text x="500" y="142" font-family="system-ui" font-size="10" fill="#a8b1c7">USD · EUR</text>
  <!-- Grid lines -->
  <line x1="240" y1="170" x2="560" y2="170" stroke="#1c2745" stroke-width="0.5"/>
  <line x1="240" y1="210" x2="560" y2="210" stroke="#1c2745" stroke-width="0.5"/>
  <line x1="240" y1="250" x2="560" y2="250" stroke="#1c2745" stroke-width="0.5"/>
  <!-- USD line -->
  <polyline points="260,250 310,230 360,210 410,190 460,200 520,180" stroke="#a78bfa" stroke-width="2.5" fill="none" stroke-linecap="round" stroke-linejoin="round"/>
  <!-- EUR line -->
  <polyline points="260,260 310,250 360,240 410,235 460,230 520,220" stroke="#8affc1" stroke-width="2.5" fill="none" stroke-linecap="round" stroke-linejoin="round" stroke-dasharray="6,4"/>
  <!-- Dots -->
  <circle cx="520" cy="180" r="4" fill="#a78bfa"/>
  <circle cx="520" cy="220" r="4" fill="#8affc1"/>
  <!-- Labels -->
  <text x="252" y="290" font-family="system-ui" font-size="9" fill="#a8b1c7">Oct</text>
  <text x="302" y="290" font-family="system-ui" font-size="9" fill="#a8b1c7">Nov</text>
  <text x="352" y="290" font-family="system-ui" font-size="9" fill="#a8b1c7">Dic</text>
  <text x="402" y="290" font-family="system-ui" font-size="9" fill="#a8b1c7">Ene</text>
  <text x="452" y="290" font-family="system-ui" font-size="9" fill="#a8b1c7">Feb</text>
  <text x="510" y="290" font-family="system-ui" font-size="9" fill="#a8b1c7">Mar</text>

  <!-- Donut chart - gastos por categoria -->
  <rect x="596" y="116" width="184" height="190" rx="10" fill="#11172b" stroke="#1c2745" stroke-width="1"/>
  <text x="612" y="142" font-family="system-ui" font-size="12" font-weight="600" fill="#e8edf7">Por categoria</text>
  <!-- Donut -->
  <circle cx="688" cy="216" r="50" stroke="#2d1b69" stroke-width="14" fill="none" stroke-dasharray="94 220"/>
  <circle cx="688" cy="216" r="50" stroke="#a78bfa" stroke-width="14" fill="none" stroke-dasharray="63 251" stroke-dashoffset="-94"/>
  <circle cx="688" cy="216" r="50" stroke="#8affc1" stroke-width="14" fill="none" stroke-dasharray="47 267" stroke-dashoffset="-157"/>
  <circle cx="688" cy="216" r="50" stroke="#ffd93d" stroke-width="14" fill="none" stroke-dasharray="32 282" stroke-dashoffset="-204"/>
  <circle cx="688" cy="216" r="50" stroke="#ff6b6b" stroke-width="14" fill="none" stroke-dasharray="78 236" stroke-dashoffset="-236"/>
  <text x="674" y="220" font-family="system-ui" font-size="14" font-weight="700" fill="#e8edf7" text-anchor="middle">5</text>
  <text x="674" y="233" font-family="system-ui" font-size="8" fill="#a8b1c7" text-anchor="middle">categorias</text>
  <!-- Legend -->
  <circle cx="624" cy="284" r="4" fill="#2d1b69"/><text x="634" y="288" font-family="system-ui" font-size="9" fill="#a8b1c7">Vivienda 30%</text>
  <circle cx="714" cy="284" r="4" fill="#a78bfa"/><text x="724" y="288" font-family="system-ui" font-size="9" fill="#a8b1c7">Comida 20%</text>
  <circle cx="624" cy="300" r="4" fill="#8affc1"/><text x="634" y="304" font-family="system-ui" font-size="9" fill="#a8b1c7">Transporte 15%</text>

  <!-- Recent transactions -->
  <rect x="200" y="322" width="580" height="86" rx="10" fill="#11172b" stroke="#1c2745" stroke-width="1"/>
  <text x="216" y="346" font-family="system-ui" font-size="12" font-weight="600" fill="#e8edf7">Ultimas transacciones</text>
  <text x="216" y="370" font-family="system-ui" font-size="11" fill="#a8b1c7">Carrefour</text>
  <text x="380" y="370" font-family="system-ui" font-size="10" fill="#a8b1c7">Comida</text>
  <text x="520" y="370" font-family="system-ui" font-size="11" fill="#ff6b6b">-€42.30</text>
  <text x="640" y="370" font-family="system-ui" font-size="10" fill="#a8b1c7">Hoy</text>
  <text x="216" y="392" font-family="system-ui" font-size="11" fill="#a8b1c7">Transferencia recibida</text>
  <text x="380" y="392" font-family="system-ui" font-size="10" fill="#a8b1c7">Ingreso</text>
  <text x="520" y="392" font-family="system-ui" font-size="11" fill="#8affc1">+$1,200.00</text>
  <text x="640" y="392" font-family="system-ui" font-size="10" fill="#a8b1c7">Ayer</text>
</svg>
