<svg xmlns="http://www.w3.org/2000/svg" viewBox="0 0 800 420" fill="none">
  <rect width="800" height="420" rx="12" fill="#0b1020"/>
  <!-- Header -->
  <rect x="20" y="16" width="760" height="48" rx="10" fill="#11172b" stroke="#1c2745" stroke-width="1"/>
  <text x="40" y="46" font-family="system-ui" font-size="16" font-weight="700" fill="#e8edf7">Insights</text>
  <text x="140" y="46" font-family="system-ui" font-size="12" fill="#a8b1c7">Analisis de tus finanzas</text>
  <!-- Language selector -->
  <rect x="700" y="28" width="60" height="24" rx="6" fill="#2d1b69"/>
  <text x="716" y="46" font-family="system-ui" font-size="11" fill="#a78bfa">EN/ES/FR</text>

  <!-- Health Score -->
  <rect x="20" y="80" width="240" height="160" rx="10" fill="#11172b" stroke="#1c2745" stroke-width="1"/>
  <text x="40" y="106" font-family="system-ui" font-size="12" font-weight="600" fill="#e8edf7">Salud financiera</text>
  <!-- Circle gauge -->
  <circle cx="140" cy="172" r="45" stroke="#1c2745" stroke-width="8" fill="none"/>
  <circle cx="140" cy="172" r="45" stroke="#8affc1" stroke-width="8" fill="none" stroke-dasharray="226 283" stroke-linecap="round" transform="rotate(-90 140 172)"/>
  <text x="140" y="176" font-family="system-ui" font-size="24" font-weight="700" fill="#8affc1" text-anchor="middle">80</text>
  <text x="140" y="192" font-family="system-ui" font-size="9" fill="#a8b1c7" text-anchor="middle">de 100</text>
  <text x="140" y="232" font-family="system-ui" font-size="11" font-weight="600" fill="#8affc1" text-anchor="middle">Buena</text>

  <!-- Spending patterns -->
  <rect x="276" y="80" width="504" height="160" rx="10" fill="#11172b" stroke="#1c2745" stroke-width="1"/>
  <text x="296" y="106" font-family="system-ui" font-size="12" font-weight="600" fill="#e8edf7">Patron de gastos semanal</text>
  <!-- Weekly bars -->
  <text x="320" y="228" font-family="system-ui" font-size="9" fill="#a8b1c7">Lun</text>
  <rect x="320" y="130" width="28" height="86" rx="4" fill="#a78bfa" opacity="0.7"/>
  <text x="390" y="228" font-family="system-ui" font-size="9" fill="#a8b1c7">Mar</text>
  <rect x="390" y="160" width="28" height="56" rx="4" fill="#a78bfa" opacity="0.5"/>
  <text x="460" y="228" font-family="system-ui" font-size="9" fill="#a8b1c7">Mie</text>
  <rect x="460" y="145" width="28" height="71" rx="4" fill="#a78bfa" opacity="0.6"/>
  <text x="530" y="228" font-family="system-ui" font-size="9" fill="#a8b1c7">Jue</text>
  <rect x="530" y="175" width="28" height="41" rx="4" fill="#a78bfa" opacity="0.4"/>
  <text x="600" y="228" font-family="system-ui" font-size="9" fill="#a8b1c7">Vie</text>
  <rect x="600" y="120" width="28" height="96" rx="4" fill="#ff6b6b" opacity="0.8"/>
  <text x="670" y="228" font-family="system-ui" font-size="9" fill="#a8b1c7">Sab</text>
  <rect x="670" y="110" width="28" height="106" rx="4" fill="#ff6b6b" opacity="0.9"/>
  <text x="740" y="228" font-family="system-ui" font-size="9" fill="#a8b1c7">Dom</text>
  <rect x="740" y="150" width="28" height="66" rx="4" fill="#a78bfa" opacity="0.55"/>

  <!-- Recommendations -->
  <rect x="20" y="256" width="370" height="148" rx="10" fill="#11172b" stroke="#1c2745" stroke-width="1"/>
  <text x="40" y="282" font-family="system-ui" font-size="12" font-weight="600" fill="#e8edf7">Recomendaciones</text>
  <!-- Recommendation items -->
  <rect x="36" y="296" width="20" height="20" rx="6" fill="#1a3a2d"/>
  <text x="42" y="310" font-family="system-ui" font-size="11" fill="#8affc1">+</text>
  <text x="64" y="306" font-family="system-ui" font-size="11" fill="#e8edf7">Ahorraste 12% mas que el mes pasado</text>
  <text x="64" y="320" font-family="system-ui" font-size="9" fill="#8affc1">Excelente tendencia</text>

  <rect x="36" y="334" width="20" height="20" rx="6" fill="#543d22"/>
  <text x="42" y="348" font-family="system-ui" font-size="11" fill="#ffd93d">!</text>
  <text x="64" y="344" font-family="system-ui" font-size="11" fill="#e8edf7">Gastos en viernes/sabado +40% vs promedio</text>
  <text x="64" y="358" font-family="system-ui" font-size="9" fill="#ffd93d">Considera un presupuesto semanal</text>

  <rect x="36" y="372" width="20" height="20" rx="6" fill="#2d1b69"/>
  <text x="43" y="386" font-family="system-ui" font-size="11" fill="#a78bfa">i</text>
  <text x="64" y="382" font-family="system-ui" font-size="11" fill="#e8edf7">Comida es tu categoria #1: 30% del total</text>
  <text x="64" y="396" font-family="system-ui" font-size="9" fill="#a78bfa">Dentro del rango saludable</text>

  <!-- Currency breakdown -->
  <rect x="406" y="256" width="374" height="148" rx="10" fill="#11172b" stroke="#1c2745" stroke-width="1"/>
  <text x="426" y="282" font-family="system-ui" font-size="12" font-weight="600" fill="#e8edf7">Desglose por moneda</text>

  <rect x="426" y="300" width="334" height="40" rx="8" fill="#0e1529"/>
  <text x="442" y="316" font-family="system-ui" font-size="11" fill="#a8b1c7">USD</text>
  <text x="500" y="316" font-family="system-ui" font-size="14" font-weight="700" fill="#a78bfa">$2,485.30</text>
  <text x="640" y="316" font-family="system-ui" font-size="10" fill="#8affc1">58%</text>
  <rect x="680" y="308" width="68" height="12" rx="6" fill="#1c2745"/>
  <rect x="680" y="308" width="40" height="12" rx="6" fill="#a78bfa"/>

  <rect x="426" y="348" width="334" height="40" rx="8" fill="#0e1529"/>
  <text x="442" y="364" font-family="system-ui" font-size="11" fill="#a8b1c7">EUR</text>
  <text x="500" y="364" font-family="system-ui" font-size="14" font-weight="700" fill="#8affc1">€1,680.00</text>
  <text x="640" y="364" font-family="system-ui" font-size="10" fill="#8affc1">42%</text>
  <rect x="680" y="356" width="68" height="12" rx="6" fill="#1c2745"/>
  <rect x="680" y="356" width="29" height="12" rx="6" fill="#8affc1"/>
</svg>
