<svg xmlns="http://www.w3.org/2000/svg" viewBox="0 0 800 420" fill="none">
  <rect width="800" height="420" rx="12" fill="#0b1020"/>
  <!-- Header -->
  <rect x="20" y="16" width="760" height="48" rx="10" fill="#11172b" stroke="#1c2745" stroke-width="1"/>
  <text x="40" y="46" font-family="system-ui" font-size="16" font-weight="700" fill="#e8edf7">Transacciones</text>
  <!-- Filters -->
  <rect x="320" y="28" width="80" height="24" rx="6" fill="#2d1b69"/>
  <text x="340" y="46" font-family="system-ui" font-size="11" fill="#a78bfa">Marzo</text>
  <rect x="410" y="28" width="60" height="24" rx="6" fill="transparent" stroke="#1c2745" stroke-width="1"/>
  <text x="422" y="46" font-family="system-ui" font-size="11" fill="#a8b1c7">Todas</text>
  <rect x="480" y="28" width="60" height="24" rx="6" fill="transparent" stroke="#1c2745" stroke-width="1"/>
  <text x="492" y="46" font-family="system-ui" font-size="11" fill="#a8b1c7">USD</text>
  <rect x="550" y="28" width="60" height="24" rx="6" fill="transparent" stroke="#1c2745" stroke-width="1"/>
  <text x="562" y="46" font-family="system-ui" font-size="11" fill="#a8b1c7">EUR</text>
  <rect x="660" y="28" width="100" height="24" rx="6" fill="#2d1b69"/>
  <text x="676" y="46" font-family="system-ui" font-size="11" fill="#a78bfa">+ Agregar</text>

  <!-- Summary -->
  <rect x="20" y="80" width="245" height="56" rx="10" fill="#11172b" stroke="#1c2745" stroke-width="1"/>
  <text x="36" y="100" font-family="system-ui" font-size="10" fill="#a8b1c7">Total transacciones</text>
  <text x="36" y="124" font-family="system-ui" font-size="20" font-weight="700" fill="#a78bfa">142</text>

  <rect x="277" y="80" width="245" height="56" rx="10" fill="#11172b" stroke="#1c2745" stroke-width="1"/>
  <text x="293" y="100" font-family="system-ui" font-size="10" fill="#a8b1c7">Ingresos del mes</text>
  <text x="293" y="124" font-family="system-ui" font-size="20" font-weight="700" fill="#8affc1">+$2,150.00</text>

  <rect x="535" y="80" width="245" height="56" rx="10" fill="#11172b" stroke="#1c2745" stroke-width="1"/>
  <text x="551" y="100" font-family="system-ui" font-size="10" fill="#a8b1c7">Gastos del mes</text>
  <text x="551" y="124" font-family="system-ui" font-size="20" font-weight="700" fill="#ff6b6b">-$1,340.80</text>

  <!-- Table -->
  <rect x="20" y="152" width="760" height="252" rx="10" fill="#11172b" stroke="#1c2745" stroke-width="1"/>
  <text x="40" y="178" font-family="system-ui" font-size="10" font-weight="700" fill="#a8b1c7">FECHA</text>
  <text x="140" y="178" font-family="system-ui" font-size="10" font-weight="700" fill="#a8b1c7">DESCRIPCION</text>
  <text x="380" y="178" font-family="system-ui" font-size="10" font-weight="700" fill="#a8b1c7">CATEGORIA</text>
  <text x="520" y="178" font-family="system-ui" font-size="10" font-weight="700" fill="#a8b1c7">CUENTA</text>
  <text x="650" y="178" font-family="system-ui" font-size="10" font-weight="700" fill="#a8b1c7">MONTO</text>
  <line x1="40" y1="188" x2="760" y2="188" stroke="#1c2745" stroke-width="1"/>

  <!-- Row 1 -->
  <text x="40" y="214" font-family="system-ui" font-size="11" fill="#a8b1c7">07 Mar</text>
  <text x="140" y="214" font-family="system-ui" font-size="11" fill="#e8edf7">Carrefour — compras semana</text>
  <rect x="372" y="200" width="64" height="20" rx="10" fill="#2d1b69"/>
  <text x="384" y="214" font-family="system-ui" font-size="10" fill="#a78bfa">Comida</text>
  <text x="520" y="214" font-family="system-ui" font-size="11" fill="#a8b1c7">N26 EUR</text>
  <text x="650" y="214" font-family="system-ui" font-size="11" font-weight="600" fill="#ff6b6b">-€42.30</text>

  <!-- Row 2 -->
  <text x="40" y="248" font-family="system-ui" font-size="11" fill="#a8b1c7">06 Mar</text>
  <text x="140" y="248" font-family="system-ui" font-size="11" fill="#e8edf7">Salario marzo</text>
  <rect x="372" y="234" width="72" height="20" rx="10" fill="#1a3a2d"/>
  <text x="384" y="248" font-family="system-ui" font-size="10" fill="#8affc1">Ingreso</text>
  <text x="520" y="248" font-family="system-ui" font-size="11" fill="#a8b1c7">BNP EUR</text>
  <text x="650" y="248" font-family="system-ui" font-size="11" font-weight="600" fill="#8affc1">+€1,450.00</text>

  <!-- Row 3 -->
  <text x="40" y="282" font-family="system-ui" font-size="11" fill="#a8b1c7">05 Mar</text>
  <text x="140" y="282" font-family="system-ui" font-size="11" fill="#e8edf7">Netflix suscripcion</text>
  <rect x="372" y="268" width="100" height="20" rx="10" fill="#2d1b69"/>
  <text x="384" y="282" font-family="system-ui" font-size="10" fill="#a78bfa">Entretenimiento</text>
  <text x="520" y="282" font-family="system-ui" font-size="11" fill="#a8b1c7">Visa USD</text>
  <text x="650" y="282" font-family="system-ui" font-size="11" font-weight="600" fill="#ff6b6b">-$15.99</text>

  <!-- Row 4 -->
  <text x="40" y="316" font-family="system-ui" font-size="11" fill="#a8b1c7">04 Mar</text>
  <text x="140" y="316" font-family="system-ui" font-size="11" fill="#e8edf7">RATP — abono transporte</text>
  <rect x="372" y="302" width="84" height="20" rx="10" fill="#2d1b69"/>
  <text x="384" y="316" font-family="system-ui" font-size="10" fill="#a78bfa">Transporte</text>
  <text x="520" y="316" font-family="system-ui" font-size="11" fill="#a8b1c7">N26 EUR</text>
  <text x="650" y="316" font-family="system-ui" font-size="11" font-weight="600" fill="#ff6b6b">-€86.40</text>

  <!-- Row 5 -->
  <text x="40" y="350" font-family="system-ui" font-size="11" fill="#a8b1c7">03 Mar</text>
  <text x="140" y="350" font-family="system-ui" font-size="11" fill="#e8edf7">Freelance — proyecto web</text>
  <rect x="372" y="336" width="72" height="20" rx="10" fill="#1a3a2d"/>
  <text x="384" y="350" font-family="system-ui" font-size="10" fill="#8affc1">Ingreso</text>
  <text x="520" y="350" font-family="system-ui" font-size="11" fill="#a8b1c7">Wise USD</text>
  <text x="650" y="350" font-family="system-ui" font-size="11" font-weight="600" fill="#8affc1">+$700.00</text>

  <!-- Pagination -->
  <text x="40" y="388" font-family="system-ui" font-size="10" fill="#a8b1c7">Mostrando 1-5 de 142</text>
  <rect x="700" y="374" width="24" height="20" rx="4" fill="#2d1b69"/>
  <text x="708" y="388" font-family="system-ui" font-size="10" fill="#a78bfa">1</text>
  <rect x="730" y="374" width="24" height="20" rx="4" fill="transparent" stroke="#1c2745" stroke-width="1"/>
  <text x="738" y="388" font-family="system-ui" font-size="10" fill="#a8b1c7">2</text>
</svg>
